<svg id="Layer_1" data-name="Layer 1" xmlns="http://www.w3.org/2000/svg" xmlns:xlink="http://www.w3.org/1999/xlink" viewBox="0 0 482 182.73"><defs><style>.cls-1{fill:url(#linear-gradient);}.cls-2{fill:url(#linear-gradient-2);}.cls-3{fill:url(#linear-gradient-3);}.cls-4{fill:url(#linear-gradient-4);}.cls-5{fill:url(#linear-gradient-5);}.cls-6{fill:url(#linear-gradient-6);}.cls-11,.cls-13,.cls-7,.cls-8{fill:#008e1b;}.cls-7{clip-rule:evenodd;}.cls-10,.cls-11,.cls-8{fill-rule:evenodd;}.cls-9{mask:url(#mask);}.cls-10{fill:#fff;}.cls-11{opacity:0.3;}.cls-12{clip-path:url(#clip-path);}.cls-14{mask:url(#mask-2);}.cls-15{mask:url(#mask-3);}.cls-16{clip-path:url(#clip-path-2);}.cls-17{clip-path:url(#clip-path-3);}.cls-18{mask:url(#mask-4);}.cls-19{mask:url(#mask-5);}.cls-20{mask:url(#mask-6);}.cls-21{fill:#008e1b;}</style><linearGradient id="linear-gradient" x1="-316.77" y1="162.24" x2="-101.8" y2="346.5" gradientTransform="translate(189.2 -212.83)" gradientUnits="userSpaceOnUse"><stop offset="0" stop-color="#fff"/><stop offset="1"/></linearGradient><linearGradient id="linear-gradient-2" x1="-93.81" y1="357.1" x2="-174.89" y2="389.91" gradientTransform="translate(245.01 -312.47)" xlink:href="#linear-gradient"/><linearGradient id="linear-gradient-3" x1="-180.5" y1="352.69" x2="-138.66" y2="397.64" gradientTransform="translate(231.07 -316.2)" xlink:href="#linear-gradient"/><linearGradient id="linear-gradient-4" x1="-122.35" y1="325.56" x2="-184.53" y2="364.29" gradientTransform="translate(268.44 -255.54)" xlink:href="#linear-gradient"/><linearGradient id="linear-gradient-5" x1="-20.8" y1="364.96" x2="-171.9" y2="383.07" gradientTransform="translate(189.2 -294.92)" xlink:href="#linear-gradient"/><linearGradient id="linear-gradient-6" x1="42.52" y1="136.44" x2="-163.54" y2="337.39" gradientTransform="translate(170.89 -212.83)" xlink:href="#linear-gradient"/><mask id="mask" x="37.88" y="85.18" width="40.07" height="46.42" maskUnits="userSpaceOnUse"><rect class="cls-1" x="37.88" y="85.18" width="40.07" height="46.42"/></mask><clipPath id="clip-path"><path class="cls-7" d="M61.28,73.82l6.49-16.2A6.36,6.36,0,0,1,76,54.09l25.66,10.27a6.36,6.36,0,0,1,3.53,8.25l-1.32,3.29a13.11,13.11,0,0,0-7.11-2.08Z"/></clipPath><mask id="mask-2" x="69.08" y="65.02" width="36.59" height="10.88" maskUnits="userSpaceOnUse"><rect class="cls-2" x="69.08" y="65.02" width="36.59" height="10.88"/></mask><mask id="mask-3" x="61.28" y="54.08" width="29.69" height="19.74" maskUnits="userSpaceOnUse"><rect class="cls-3" x="61.28" y="54.08" width="29.69" height="19.74"/></mask><clipPath id="clip-path-2"><path class="cls-7" d="M53.17,73.82l2.71-12.38a6.35,6.35,0,0,1,7.55-4.84l.84.18-6.82,17Z"/></clipPath><clipPath id="clip-path-3"><path class="cls-7" d="M44.65,73.82l1-8.39a6.36,6.36,0,0,1,7-5.57,7.62,7.62,0,0,0-.22.82L49.52,73.82Z"/></clipPath><mask id="mask-4" x="82.17" y="95.55" width="26.33" height="12.18" maskUnits="userSpaceOnUse"><rect class="cls-4" x="82.17" y="95.55" width="26.33" height="12.18"/></mask><mask id="mask-5" x="37.88" y="77.52" width="67.87" height="8.19" maskUnits="userSpaceOnUse"><rect class="cls-5" x="37.88" y="77.52" width="67.87" height="8.19"/></mask><mask id="mask-6" x="27.64" y="67.95" width="10.24" height="63.65" maskUnits="userSpaceOnUse"><rect class="cls-6" x="27.64" y="67.95" width="10.24" height="63.65"/></mask></defs><path class="cls-8" d="M91.76,92h14V86a8.54,8.54,0,0,0-8.51-8.51H40.64v-.14l.41-3.56L41.75,68h-8a9.72,9.72,0,0,0-9.69,9.7v45.44a8.54,8.54,0,0,0,8.51,8.51H97.25a8.54,8.54,0,0,0,8.51-8.51v-6h-14c-7.24,0-13.15-5.64-13.15-12.55S84.52,92,91.76,92Z"/><g class="cls-9"><path class="cls-10" d="M78,131.6H37.88V85.18c.11,1,.15,2,.16,2.79.07,5.64-.43,15.76,2.48,22.53,6.7,15.6,36.37-1,37.43,21.1"/></g><path class="cls-11" d="M24.11,123.74h0m77.78,6.47a8.39,8.39,0,0,1-4.64,1.39H32.6a8.55,8.55,0,0,1-8.49-7.86c1.87,6.78,10.78,6.17,16.24,6.2Z"/><path class="cls-8" d="M61.28,73.82l6.49-16.2A6.36,6.36,0,0,1,76,54.09l25.66,10.27a6.36,6.36,0,0,1,3.53,8.25l-1.32,3.29a13.11,13.11,0,0,0-7.11-2.08Z"/><g class="cls-12"><rect class="cls-13" x="61.28" y="52.79" width="45.23" height="23.11"/></g><g class="cls-14"><path class="cls-10" d="M102.92,65a6.38,6.38,0,0,1,2.29,7.59l-1.32,3.29a13.11,13.11,0,0,0-7.11-2.08H69.08Z"/></g><g class="cls-15"><path class="cls-8" d="M61.28,73.82l6.49-16.2a6.34,6.34,0,0,1,3.57-3.54L91,73.82H61.28Z"/></g><path class="cls-8" d="M53.17,73.82l2.71-12.38a6.35,6.35,0,0,1,7.55-4.84l.84.18-6.82,17Z"/><g class="cls-16"><rect class="cls-13" x="53.17" y="55.85" width="11.1" height="17.96"/></g><polygon class="cls-11" points="64.27 56.78 57.45 73.82 53.17 73.82 64.27 56.78"/><path class="cls-8" d="M44.65,73.82l1-8.39a6.36,6.36,0,0,1,7-5.57,7.62,7.62,0,0,0-.22.82L49.52,73.82Z"/><g class="cls-17"><rect class="cls-13" x="44.65" y="59.48" width="7.97" height="14.33"/></g><polygon class="cls-11" points="52.62 59.86 49.52 73.82 44.65 73.82 52.62 59.86"/><g class="cls-18"><path class="cls-8" d="M91.17,95.55H106A2.84,2.84,0,0,1,108.5,97c-.43,4.28-10.93,3.8-17,3.74-7.29-.08-8.71,7-8.72,7a8.89,8.89,0,0,1-.59-3.18h0a9,9,0,0,1,9-9"/></g><path class="cls-8" d="M33.74,77.55h6.89l0-.17.41-3.56H33.74a1.87,1.87,0,1,0,0,3.73"/><g class="cls-19"><path class="cls-8" d="M37.88,79h56.3c7.8,0,10.65,3.42,11.57,6.75a8.54,8.54,0,0,0-8.5-8.19h-.74l-55.88,0H37.88Z"/></g><path class="cls-8" d="M106,95.55H91.17a9,9,0,0,0-9,9h0a9,9,0,0,0,9,9H106a2.84,2.84,0,0,0,2.84-2.83V98.38A2.84,2.84,0,0,0,106,95.55Zm-8.72,9.8a3.45,3.45,0,1,1-4.06-4.06A3.45,3.45,0,0,1,97.32,105.35Z"/><g class="cls-20"><path class="cls-10" d="M37.88,131.6H32.6a8.51,8.51,0,0,1-5-1.6V70.16A9.65,9.65,0,0,1,33.78,68h4.1Z"/></g><path class="cls-21" d="M132.14,90.33h22.91v7.78H147.5v33.67h-8V98.11h-7.35Z"/><path class="cls-21" d="M160.18,90.33h7.92v26.81a14,14,0,0,0,.6,4.9,4.92,4.92,0,0,0,2,2.29,6.35,6.35,0,0,0,3.37.86,6.53,6.53,0,0,0,3.59-1,5.07,5.07,0,0,0,2.09-2.43,18.28,18.28,0,0,0,.58-5.65V90.33h7.91v24.72a35.77,35.77,0,0,1-.7,8.67,13.3,13.3,0,0,1-7.27,8,15.6,15.6,0,0,1-6,1.09,14.6,14.6,0,0,1-7.85-2.07,12.06,12.06,0,0,1-4.77-5.19c-1-2.08-1.44-5.58-1.44-10.52Z"/><path class="cls-21" d="M251.65,97.62l-5.52,5.26q-5.62-6-12.67-5.95A13.88,13.88,0,0,0,219.38,111a14.68,14.68,0,0,0,1.81,7.36,12.81,12.81,0,0,0,5.09,5,14.74,14.74,0,0,0,7.32,1.84,15,15,0,0,0,6.28-1.29,22.25,22.25,0,0,0,6.25-4.67l5.35,5.59a29.22,29.22,0,0,1-8.68,6.21,23.59,23.59,0,0,1-9.33,1.74q-9.66,0-15.82-6.13T211.49,111a21.48,21.48,0,0,1,2.81-11,20.81,20.81,0,0,1,8-7.75,22.68,22.68,0,0,1,11.26-2.93,23.94,23.94,0,0,1,18.06,8.33Z"/><path class="cls-21" d="M271.2,90.33h8l15.94,41.45h-8.2l-3.24-8.53H266.79l-3.38,8.53h-8.2Zm4.05,11-5.56,14.23h11.09Z"/><path class="cls-21" d="M301.78,90.33h8.36q6.87,0,9.78,1.23a10,10,0,0,1,4.69,4.07,12.49,12.49,0,0,1,1.77,6.73,11.45,11.45,0,0,1-2,6.84,11.8,11.8,0,0,1-5.9,4.15l9.82,18.43h-8.63l-9.32-17.55h-.72v17.55h-7.89Zm7.89,16.2h2.47q3.76,0,5.19-1a3.73,3.73,0,0,0,1.41-3.28,3.91,3.91,0,0,0-2.58-3.81,14.36,14.36,0,0,0-4.33-.44h-2.16Z"/><path class="cls-21" d="M330.64,90.33h22.91v7.78H346v33.67h-8V98.11h-7.35Z"/><path class="cls-21" d="M359,90.33h22.62v7.72H366.82v7.5h14.79v7.58H366.82V124h14.79v7.75H359Z"/><path class="cls-21" d="M389.5,90.33h8.36q6.87,0,9.79,1.23a10,10,0,0,1,4.68,4.07,12.49,12.49,0,0,1,1.77,6.73,11.51,11.51,0,0,1-2,6.84,11.87,11.87,0,0,1-5.91,4.15l9.82,18.43h-8.62l-9.32-17.55h-.73v17.55H389.5Zm7.89,16.2h2.48c2.51,0,4.23-.33,5.18-1a3.71,3.71,0,0,0,1.42-3.28,4.09,4.09,0,0,0-.7-2.37,4,4,0,0,0-1.89-1.44,14.24,14.24,0,0,0-4.32-.44h-2.17Z"/><path class="cls-21" d="M435.09,90.33h8l16,41.45h-8.2l-3.25-8.53H430.68l-3.37,8.53h-8.2Zm4.05,11-5.56,14.23h11.09Z"/></svg>